<?xml version="1.0" encoding="UTF-8"?>
<svg xmlns="http://www.w3.org/2000/svg" xmlns:xlink="http://www.w3.org/1999/xlink" viewBox="0 0 150.28 20">
  <defs>
    <linearGradient id="Sfumatura_senza_nome_5" data-name="Sfumatura senza nome 5" x1="75.14" y1="0" x2="75.14" y2="20" gradientUnits="userSpaceOnUse">
      <stop offset="0" stop-color="#fff"/>
      <stop offset="1" stop-color="#b1b2b4"/>
    </linearGradient>
  </defs>
  <g style="fill: none; isolation: isolate;">
    <g id="bg">
      <path d="m145.28,20h-40.52V0h40.52c2.76,0,5,2.24,5,5v10c0,2.76-2.24,5-5,5Z" style="fill: #333;"/>
      <path d="m104.76,20H4.97C2.22,20,0,17.78,0,15.03V4.97C0,2.22,2.22,0,4.97,0h99.8v20Z" style="fill: #555;"/>
    </g>
    <g id="shadow">
      <path d="m145.28,0H4.97C2.22,0,0,2.22,0,4.97v10.06C0,17.78,2.22,20,4.97,20h140.31c2.76,0,5-2.24,5-5V5C150.28,2.24,148.04,0,145.28,0Z" style="fill: url(#Sfumatura_senza_nome_5); mix-blend-mode: multiply; opacity: .7;"/>
    </g>
    <g id="border">
      <g style="fill: none; mix-blend-mode: overlay; opacity: .5;">
        <path d="m145.28.75c2.34,0,4.25,1.91,4.25,4.25v10c0,2.34-1.91,4.25-4.25,4.25H4.97c-2.33,0-4.22-1.89-4.22-4.22V4.97C.75,2.64,2.64.75,4.97.75h140.31M145.28,0H4.97C2.22,0,0,2.22,0,4.97v10.06C0,17.78,2.22,20,4.97,20h140.31c2.76,0,5-2.24,5-5V5C150.28,2.24,148.04,0,145.28,0h0Z" style="fill: #fff;"/>
      </g>
    </g>
    <g id="label">
      <g>
        <path d="m115.95,14.01c-1.88,0-3.25-1.1-3.25-3.77v-1.55c0-2.66,1.37-3.77,3.25-3.77s3.24,1.1,3.24,3.77v1.55c0,2.66-1.35,3.77-3.24,3.77Zm2.13-5.31c0-2.02-.82-2.78-2.13-2.78s-2.15.77-2.15,2.78v1.55c0,2.02.83,2.78,2.15,2.78s2.13-.77,2.13-2.78v-1.55Z" style="fill: #fff;"/>
        <path d="m123.9,13.94c-.23.04-.72.07-1.15.07-1.13,0-1.78-.37-1.78-1.67v-6.19c0-.12.11-.2.24-.23l.59-.1h.02c.12,0,.2.11.2.23v1.27h1.87c.13,0,.23.08.23.22v.41c0,.12-.1.22-.23.22h-1.87v4.17c0,.7.23.82.89.82h.97c.17,0,.25.05.25.17v.41c0,.11-.06.18-.24.2Z" style="fill: #fff;"/>
        <path d="m130.3,13.93h-.58c-.13,0-.24-.11-.24-.24v-3.95c0-1.2-.5-1.57-1.28-1.57-.37,0-1.13.1-1.65.34v5.18c0,.12-.11.24-.24.24h-.59c-.12,0-.23-.11-.23-.24V5.15c0-.13.1-.24.23-.24h.6c.13,0,.23.11.23.24v2.47c.58-.25,1.32-.37,1.83-.37,1.27,0,2.16.73,2.16,2.49v3.95c0,.13-.11.24-.24.24Z" style="fill: #fff;"/>
        <path d="m137.28,10.96h-4.02v.17c0,1.43.56,1.96,1.67,1.96.7,0,1.58-.05,2.13-.13h.06c.1,0,.19.05.19.17v.41c0,.16-.05.24-.24.28-.68.13-1.34.2-2.15.2-1.38,0-2.72-.65-2.72-2.88v-1.08c0-1.71.95-2.81,2.66-2.81s2.64,1.1,2.64,2.81v.65c0,.16-.08.26-.23.26Zm-.84-.91c0-1.35-.52-1.88-1.57-1.88s-1.61.59-1.61,1.88v.11h3.18v-.11Z" style="fill: #fff;"/>
        <path d="m141.91,8.17c-.82,0-1.21.02-1.67.12v5.4c0,.12-.08.24-.22.24h-.62c-.12,0-.22-.11-.22-.24v-5.83c0-.13.08-.22.22-.28.68-.3,1.51-.34,2.51-.34.16,0,.25.01.25.18v.55c0,.13-.02.19-.25.19Z" style="fill: #fff;"/>
      </g>
      <g>
        <path d="m32.7,14.01c-1.88,0-3.25-1.1-3.25-3.77v-1.55c0-2.66,1.37-3.77,3.25-3.77s3.24,1.1,3.24,3.77v1.55c0,2.66-1.35,3.77-3.24,3.77Zm2.13-5.31c0-2.02-.82-2.78-2.13-2.78s-2.15.77-2.15,2.78v1.55c0,2.02.83,2.78,2.15,2.78s2.13-.77,2.13-2.78v-1.55Z" style="fill: #fff;"/>
        <path d="m40.17,14.01c-.37,0-.94-.05-1.4-.13v2.17c0,.12-.1.23-.23.23h-.61c-.12,0-.22-.1-.22-.23V7.8c0-.16.04-.23.25-.28.64-.16,1.48-.28,2.21-.28,1.79,0,2.61,1.16,2.61,2.96v.86c0,1.88-.86,2.94-2.61,2.94Zm1.56-3.8c0-1.26-.37-2.08-1.56-2.08-.5,0-1.07.06-1.4.12v4.75c.4.07,1.02.12,1.4.12,1.18,0,1.56-.77,1.56-2.05v-.86Z" style="fill: #fff;"/>
        <path d="m49.3,10.96h-4.02v.17c0,1.43.56,1.96,1.67,1.96.7,0,1.58-.05,2.13-.13h.06c.1,0,.19.05.19.17v.41c0,.16-.05.24-.24.28-.68.13-1.34.2-2.15.2-1.38,0-2.72-.65-2.72-2.88v-1.08c0-1.71.95-2.81,2.66-2.81s2.64,1.1,2.64,2.81v.65c0,.16-.08.26-.23.26Zm-.84-.91c0-1.35-.52-1.88-1.57-1.88s-1.61.59-1.61,1.88v.11h3.18v-.11Z" style="fill: #fff;"/>
        <path d="m56.05,13.93h-.62c-.13,0-.22-.11-.22-.24v-4.28c0-.9-.23-1.25-1.04-1.25h-.85c-.82,0-1.04.35-1.04,1.25v4.28c0,.13-.08.24-.22.24h-.62c-.13,0-.22-.11-.22-.24v-4.28c0-1.85,1.28-2.16,2.1-2.16h.85c.82,0,2.1.31,2.1,2.16v4.28c0,.13-.08.24-.22.24Z" style="fill: #fff;"/>
        <path d="m63.56,14.01c-.84,0-1.46-.08-1.99-.17-.2-.04-.23-.08-.23-.22v-.48c0-.13.1-.19.2-.19h.04c.55.05,1.43.07,1.98.07,1.44,0,1.82-.58,1.82-1.42,0-.6-.35-.94-1.44-1.61l-1.16-.71c-1.1-.67-1.66-1.28-1.66-2.24,0-1.45,1.04-2.12,2.87-2.12.71,0,1.63.07,2.09.14.12.02.2.08.2.2v.52c0,.12-.08.19-.2.19h-.02c-.53-.04-1.37-.07-2.06-.07-1.24,0-1.76.26-1.76,1.14,0,.56.4.9,1.31,1.45l1.1.66c1.39.83,1.88,1.49,1.88,2.45,0,1.15-.6,2.4-2.96,2.4Z" style="fill: #fff;"/>
        <path d="m70.63,14.01c-1.76,0-2.66-1.16-2.66-2.93v-.91c0-1.76.9-2.93,2.66-2.93s2.67,1.16,2.67,2.93v.91c0,1.76-.91,2.93-2.67,2.93Zm1.62-3.84c0-1.22-.49-2-1.62-2s-1.61.77-1.61,2v.91c0,1.22.48,2,1.61,2s1.62-.77,1.62-2v-.91Z" style="fill: #fff;"/>
        <path d="m77.54,14.01h-.11c-.82,0-2.47-.46-2.47-2.82v-3.62c0-.13.08-.24.22-.24h.62c.13,0,.22.11.22.24v3.62c0,1.44.61,1.9,1.42,1.9h.11c.8,0,1.42-.46,1.42-1.9v-3.62c0-.13.08-.24.22-.24h.62c.13,0,.22.11.22.24v3.62c0,2.36-1.66,2.82-2.47,2.82Z" style="fill: #fff;"/>
        <path d="m84.61,8.17c-.82,0-1.21.02-1.67.12v5.4c0,.12-.08.24-.22.24h-.62c-.12,0-.22-.11-.22-.24v-5.83c0-.13.08-.22.22-.28.68-.3,1.51-.34,2.51-.34.16,0,.25.01.25.18v.55c0,.13-.02.19-.25.19Z" style="fill: #fff;"/>
        <path d="m89.91,13.88c-.4.07-.94.13-1.5.13-1.63,0-2.55-1.15-2.55-2.91v-.94c0-1.76.91-2.91,2.55-2.91.55,0,1.1.06,1.5.13.19.04.24.1.24.26v.43c0,.12-.1.18-.2.18h-.05c-.53-.06-.9-.08-1.49-.08-.96,0-1.5.64-1.5,1.99v.94c0,1.34.53,1.99,1.5,1.99.59,0,.96-.02,1.49-.08h.05c.11,0,.2.06.2.18v.43c0,.16-.05.23-.24.26Z" style="fill: #fff;"/>
        <path d="m96.59,10.96h-4.02v.17c0,1.43.56,1.96,1.67,1.96.7,0,1.58-.05,2.13-.13h.06c.1,0,.19.05.19.17v.41c0,.16-.05.24-.24.28-.68.13-1.34.2-2.15.2-1.38,0-2.72-.65-2.72-2.88v-1.08c0-1.71.95-2.81,2.66-2.81s2.64,1.1,2.64,2.81v.65c0,.16-.08.26-.23.26Zm-.84-.91c0-1.35-.52-1.88-1.57-1.88s-1.61.59-1.61,1.88v.11h3.18v-.11Z" style="fill: #fff;"/>
      </g>
    </g>
    <g id="logo">
      <path d="m16.85,13.12l.74,2.88c2.29-.92,3.9-3.16,3.9-5.78,0-3.44-2.79-6.22-6.22-6.22s-6.22,2.79-6.22,6.22c0,2.62,1.61,4.86,3.9,5.78l.75-2.88c-1.04-.56-1.74-1.66-1.74-2.92,0-1.83,1.49-3.32,3.32-3.32s3.32,1.49,3.32,3.32c0,1.26-.7,2.36-1.74,2.92" style="fill: #fff;"/>
    </g>
  </g>
</svg>